<?xml version="1.0" encoding="iso-8859-1"?>
<!-- Generator: Adobe Illustrator 30.1.0, SVG Export Plug-In . SVG Version: 9.03 Build 0)  -->
<svg version="1.1" id="Layer_1" xmlns="http://www.w3.org/2000/svg" xmlns:xlink="http://www.w3.org/1999/xlink" x="0px" y="0px"
	 viewBox="0 0 55 55" style="enable-background:new 0 0 55 55;" xml:space="preserve">
<g>
	<path style="opacity:0.4;enable-background:new    ;" d="M46.5401077,16.9501743L31.8627243,31.5981789
		c-2.1582413,2.153923-5.6284199,2.5284576-8.0394573,0.6618309c-2.9169292-2.2582836-3.110714-6.4875698-0.5850468-9.0081806
		l14.823391-14.7937164c1.1504745-1.1481709,0.7968063-3.1123056-0.694458-3.7588449
		c-9.5712967-4.1496415-21.2214336-1.9947228-28.6313248,6.478148C0.311688,20.8100376,0.7250592,35.6130905,9.6360369,44.7972069
		c9.6722651,9.9687424,25.5959358,10.0697708,35.3946304,0.2906952c7.4301529-7.4152794,9.183075-18.3623047,5.2593536-27.4475098
		C49.6478729,16.1535301,47.6864853,15.8060923,46.5401077,16.9501743z"/>
	<path d="M43.9382744,11.0700951c-0.4763794-0.477334-0.9715195-0.9238729-1.4774704-1.3511724L26.0638123,26.0830879
		c-0.7817764,0.7802124-0.7830448,2.0466499-0.0028343,2.8284264c0.7802124,0.7817764,2.0466499,0.7830448,2.8284264,0.0028343
		L45.286396,12.5501823C44.8601112,12.0434637,44.414608,11.5473862,43.9382744,11.0700951z"/>
</g>
</svg>
