<?xml version="1.0" encoding="UTF-8"?>
<svg id="Layer_2" data-name="Layer 2" xmlns="http://www.w3.org/2000/svg" viewBox="0 0 50.63 50.41">
  <g id="Layer_1-2" data-name="Layer 1">
    <g>
      <path d="M50.33,1.76l-22.64,22.64c-.65.65-1.76.19-1.76-.73V1.83c0-1.01.82-1.83,1.83-1.83h21.84c.92,0,1.38,1.11.73,1.76Z"/>
      <path d="M24.4,1.76L1.76,24.4c-.65.65-1.76.19-1.76-.73V1.83C0,.82.82,0,1.83,0h21.84c.92,0,1.38,1.11.73,1.76Z"/>
      <path d="M50.33,27.47l-22.64,22.64c-.65.65-1.76.19-1.76-.73v-21.84c0-1.01.82-1.83,1.83-1.83h21.84c.92,0,1.38,1.11.73,1.76Z"/>
      <path d="M24.4,27.47L1.76,50.11c-.65.65-1.76.19-1.76-.73v-21.84c0-1.01.82-1.83,1.83-1.83h21.84c.92,0,1.38,1.11.73,1.76Z"/>
    </g>
  </g>
</svg>